<?xml version="1.0" encoding="UTF-8" standalone="no"?>
<svg
   version="1.0"
   width="673.000000pt"
   height="601.000000pt"
   viewBox="0 0 673.000000 601.000000"
   preserveAspectRatio="xMidYMid meet"
   id="svg3"
   sodipodi:docname="th-logo-symbol-dark.svg"
   inkscape:version="1.3.2 (091e20e, 2023-11-25)"
   xmlns:inkscape="http://www.inkscape.org/namespaces/inkscape"
   xmlns:sodipodi="http://sodipodi.sourceforge.net/DTD/sodipodi-0.dtd"
   xmlns="http://www.w3.org/2000/svg"
   xmlns:svg="http://www.w3.org/2000/svg">
  <defs
     id="defs3" />
  <sodipodi:namedview
     id="namedview3"
     pagecolor="#ffffff"
     bordercolor="#000000"
     borderopacity="0.25"
     inkscape:showpageshadow="2"
     inkscape:pageopacity="0.0"
     inkscape:pagecheckerboard="0"
     inkscape:deskcolor="#d1d1d1"
     inkscape:document-units="pt"
     inkscape:zoom="0.086027152"
     inkscape:cx="-191.79991"
     inkscape:cy="1046.1813"
     inkscape:window-width="1312"
     inkscape:window-height="429"
     inkscape:window-x="0"
     inkscape:window-y="38"
     inkscape:window-maximized="0"
     inkscape:current-layer="g3" />
  <g
     transform="translate(0.000000,601.000000) scale(0.100000,-0.100000)"
     fill="#000000"
     stroke="none"
     id="g3">
    <path
       d="M4785 5974 c-16 -2 -72 -9 -124 -15 -426 -49 -852 -261 -1177 -584 -415 -413 -627 -962 -667 -1725 l-2 -45 -565 -6 c-625 -7 -669 -11 -904 -76 -496 -137 -942 -504 -1161 -958 -204 -422 -233 -954 -75 -1396 83 -232 203 -427 374 -606 280 -294 586 -457 1001 -534 158 -30 472 -32 640 -5 484 77 899 306 1210 668 306 356 487 795 559 1353 12 90 36 349 36 381 0 2 259 4 575 4 337 0 616 4 673 11 654 71 1222 530 1432 1158 101 300 123 726 56 1045 -145 686 -664 1186 -1361 1311 -86 15 -451 29 -520 19z m455 -1129 c260 -89 402 -295 401 -584 0 -298 -154 -525 -418 -616 -118 -41 -174 -45 -711 -45 l-514 0 7 68 c43 459 171 771 403 982 82 75 149 118 259 165 119 52 197 65 353 61 118 -2 146 -6 220 -31z m-2480 -2475 c0 -33 -7 -108 -16 -167 -94 -652 -469 -1054 -981 -1053 -194 1 -353 60 -469 175 -70 70 -133 187 -154 286 -18 81 -8 267 18 349 77 238 308 419 587 459 33 5 275 9 538 10 l477 1 0 -60z"
       id="path1" />
    <path
       d="M665 5959 c-46 -26 -45 -18 -45 -530 0 -449 1 -488 18 -508 17 -20 23 -21 652 -24 704 -5 738 -7 931 -70 112 -37 200 -78 287 -133 l52 -34 9 22 c5 13 28 73 51 133 92 240 234 503 365 675 36 47 74 97 85 112 l21 27 -71 41 c-158 94 -401 188 -609 235 -244 54 -292 57 -1036 61 -506 3 -695 1 -710 -7z"
       id="path2" />
    <path
       d="M4198 1320 c-70 -279 -270 -645 -482 -879 l-49 -55 42 -37 c58 -52 282 -161 429 -209 67 -22 177 -52 245 -67 l122 -27 818 -3 817 -4 0 525 0 526 -29 32 -29 33 -729 5 -728 5 -66 31 c-36 17 -122 66 -192 108 -69 42 -131 78 -139 81 -9 4 -18 -15 -30 -65z"
       id="path3"
       style="fill:#ff3d00;fill-opacity:1" />
  </g>
</svg>
